# xmcd
#
# Track frame offsets:
#	150
#	27905
#	80471
#	137048
#	189940
#	203178
#	212907
#	241779
#	299772
#	323627
#
# Disc length: 4379 seconds
#
# Revision: 1
# Processed by: cddbd v1.5.2PL0 Copyright (c) Steve Scherf et al.
# Submitted via: audiograbber 1.83.01
#
DISCID=8f11190a
DTITLE=Grateful Dead - 69-12-10 Thelma Theatre, Los Angeles CA
DYEAR=1900
DGENRE=
TTITLE0=Casey Jones
TTITLE1=Good Morning Little Schoolgirl
TTITLE2=Morning Dew
TTITLE3=Black Queen
TTITLE4=Turn On Your Lovelight
TTITLE5=Cryptical Envelopment
TTITLE6=Drums
TTITLE7=The Other One
TTITLE8=Cryptical Envelopment
TTITLE9=Cosmic Charlie
EXTD=
EXTT0=
EXTT1=
EXTT2=
EXTT3=
EXTT4=
EXTT5=
EXTT6=
EXTT7=
EXTT8=
EXTT9=
PLAYORDER=
